<?xml version="1.0" encoding="utf-8"?>
<!-- Generator: Adobe Illustrator 24.0.0, SVG Export Plug-In . SVG Version: 6.00 Build 0)  -->
<svg version="1.1" id="Layer_1" xmlns="http://www.w3.org/2000/svg" xmlns:xlink="http://www.w3.org/1999/xlink" x="0px" y="0px"
	 viewBox="0 0 512 512" style="enable-background:new 0 0 512 512;" xml:space="preserve">
<style type="text/css">
	.st0{filter:url(#Adobe_OpacityMaskFilter);}
	.st1{clip-path:url(#SVGID_2_);fill:#FFFFFF;}
	.st2{clip-path:url(#SVGID_2_);mask:url(#SVGID_3_);}
	.st3{fill:#7360F2;}
	.st4{opacity:0.45;}
	.st5{fill:#FFFFFF;}
</style>
<g>
	<g>
		<defs>
			<rect id="SVGID_1_" width="512" height="512"/>
		</defs>
		<use xlink:href="#SVGID_1_"  style="overflow:visible;fill:#7360F2;"/>
		<clipPath id="SVGID_2_">
			<use xlink:href="#SVGID_1_"  style="overflow:visible;"/>
		</clipPath>
		<defs>
			<filter id="Adobe_OpacityMaskFilter" filterUnits="userSpaceOnUse" x="-836.3" y="-836.3" width="2184.5" height="2184.5">
				<feColorMatrix  type="matrix" values="1 0 0 0 0  0 1 0 0 0  0 0 1 0 0  0 0 0 1 0"/>
			</filter>
		</defs>
		<mask maskUnits="userSpaceOnUse" x="-836.3" y="-836.3" width="2184.5" height="2184.5" id="SVGID_3_">
			<g class="st0">
				<rect x="0" y="0" class="st1" width="512" height="512"/>
			</g>
		</mask>
		<g class="st2">
			<rect x="-836.3" y="-836.3" class="st3" width="2184.5" height="2184.5"/>
			<g>
				<g>
					
						<image style="overflow:visible;" width="1620" height="1395" xlink:href="35976A77.png"  transform="matrix(1 0 0 1 -389 -357)">
					</image>
				</g>
			</g>
			<g>
				<g>
					
						<image style="overflow:visible;" width="1551" height="1484" xlink:href="35976A75.png"  transform="matrix(1 0 0 1 -575 -270)">
					</image>
				</g>
			</g>
			<g>
				<g>
					<image style="overflow:visible;" width="983" height="982" xlink:href="35976A7B.png"  transform="matrix(1 0 0 1 -359 59)">
					</image>
				</g>
			</g>
			<g>
				<g>
					<image style="overflow:visible;" width="747" height="747" xlink:href="35976A7D.png"  transform="matrix(1 0 0 1 -186 261)">
					</image>
				</g>
			</g>
			<g>
				<g>
					<image style="overflow:visible;" width="734" height="706" xlink:href="35976A7F.png"  transform="matrix(1 0 0 1 -250 322)">
					</image>
				</g>
			</g>
			<g class="st4">
				<g>
					
						<image style="overflow:visible;" width="1502" height="658" xlink:href="35976A7C.png"  transform="matrix(1 0 0 1 -688 -472)">
					</image>
				</g>
			</g>
		</g>
	</g>
</g>
<g>
	<path class="st5" d="M377.6,123.4c-8.1-7.5-40.9-31.3-113.9-31.6c0,0-86.2-5.2-128.4,33.3c-23.4,23.4-31.6,57.6-32.5,100
		s-2,121.8,74.6,143.4v32.9c0,0,0,13.3,8.3,16c10.6,3.4,16.8-6.8,27-17.7c5.5-6,13.2-14.8,19-21.5c32.6,3,65.4,0.6,97.2-7.1
		c10.6-3.5,70.4-11.1,80.2-90.6C419.4,198.5,404.4,146.7,377.6,123.4z M386.5,274.6L386.5,274.6c-8.3,66.3-56.8,70.4-65.7,73.3
		c-27.3,6.7-55.6,9.2-83.7,7.2c0,0-33.2,39.5-43.6,50.4c-1.2,1.4-2.9,2.1-4.7,2c-1.8-0.5-2.3-2.6-2.3-5.6c0-3.1,0-54.6,0-54.6
		c-64.8-18.1-61.1-85.7-60.3-121c0.8-35.4,7.4-64.4,27.2-84c35.5-32.1,108.7-27.4,108.7-27.4c61.7,0,91.4,18.9,98.2,25.1
		C383.3,159.5,394.9,206.1,386.5,274.6z"/>
	<path class="st5" d="M293.7,227.4l0.2,0.2c0,0,0,0,0,0c2.3-0.1,4.1-2.1,3.9-4.3c0.1-0.9,0.1-1.8,0.1-2.7
		c-0.5-15.3-13.3-27.4-28.6-26.9c-2.3-0.1-4.3,1.6-4.4,3.9c-0.1,2.3,1.6,4.3,3.9,4.4c1-0.1,1.9,0,2.9,0.1
		c10.9,1,18.9,10.6,17.9,21.5C289.6,225.6,291.5,227.4,293.7,227.4z"/>
	<path class="st5" d="M310.9,230.2c-0.1,2.3,1.8,4.2,4.1,4.2c0.1,0,0.3,0,0.4,0c2.2-0.2,3.9-2.2,3.6-4.4
		c0.7-14.8-4.4-29.3-14.3-40.3c-10.9-11.3-25.8-17.9-41.5-18.3c-0.4-0.1-0.7-0.1-1.1-0.1c-2.3,0.1-4,2.1-3.9,4.4
		c0.1,2.3,2.1,4,4.4,3.9c13.6,0.3,26.5,5.9,36,15.7C307.2,204.8,311.6,217.4,310.9,230.2C310.9,230.2,310.9,230.2,310.9,230.2z"/>
	<path class="st5" d="M255.4,149.6C255.4,149.6,255.4,149.6,255.4,149.6c-2.3,0-4.2,1.9-4.2,4.2c0,2.3,1.9,4.1,4.2,4.1
		c20.4-0.4,40.1,7.4,54.7,21.6c15.3,15.8,23.4,37.3,22.2,59.3c0,2.3,1.9,4.1,4.1,4.1l-0.1-0.4c2.3,0,4.1-1.9,4.1-4.1
		c1-24.1-7.9-47.5-24.7-64.8C299.8,157.9,278,149.2,255.4,149.6z"/>
	<path class="st5" d="M331,286.4c0-0.1-9.4-7.9-14-11.4c-4.9-3.6-10-6.9-15.2-9.9c-5.4-3.5-12.6-2.5-16.9,2.3l-6.1,7.7
		c-2.3,2.4-5.6,3.6-8.9,3.4c-25.9-7.7-46.1-28-53.7-53.9c-0.2-3.3,1-6.6,3.4-9l7.7-6c4.7-4.4,5.7-11.5,2.4-17
		c-2.4-3.9-6.5-11.1-9.9-15.2c-3.4-4.1-11.3-14-11.3-14c-3.7-4.6-10.3-5.7-15.3-2.5c-5.4,4.3-10.1,9.4-13.9,15.1
		c-3.3,3.6-5.5,8-6.2,12.8c-0.1,0.6-0.1,1.3,0,1.9c0,1.9,0.3,3.7,0.9,5.5c4.2,12.3,9.7,24.2,16.3,35.4c5.8,10.4,12.4,20.3,19.8,29.6
		c3.7,4.7,7.7,9.2,11.9,13.4h0.5c4.2,4.2,8.7,8.2,13.3,11.9c9.3,7.4,19.2,14,29.6,19.8c11.2,6.6,23.1,12.1,35.4,16.4
		c1.8,0.6,3.6,0.8,5.4,0.8c0.6,0.1,1.3,0.1,1.9,0c4.8-0.8,9.3-2.9,12.9-6.2c5-4.5,9.3-9.8,12.6-15.6
		C336.7,296.7,335.6,290.1,331,286.4z"/>
</g>
</svg>
