<?xml version="1.0" encoding="utf-8"?>
<!-- Generator: Adobe Illustrator 24.0.0, SVG Export Plug-In . SVG Version: 6.00 Build 0)  -->
<svg version="1.1" id="Layer_1" xmlns="http://www.w3.org/2000/svg" xmlns:xlink="http://www.w3.org/1999/xlink" x="0px" y="0px"
	 viewBox="0 0 512 512" style="enable-background:new 0 0 512 512;" xml:space="preserve">
<style type="text/css">
	.st0{filter:url(#Adobe_OpacityMaskFilter);}
	.st1{clip-path:url(#SVGID_2_);fill:#FFFFFF;}
	.st2{clip-path:url(#SVGID_2_);mask:url(#SVGID_3_);}
	.st3{fill:#25D366;}
	.st4{opacity:0.45;}
	.st5{fill-rule:evenodd;clip-rule:evenodd;fill:#FFFFFF;}
</style>
<g>
	<g>
		<defs>
			<rect id="SVGID_1_" width="512" height="512"/>
		</defs>
		<use xlink:href="#SVGID_1_"  style="overflow:visible;fill:#25D366;"/>
		<clipPath id="SVGID_2_">
			<use xlink:href="#SVGID_1_"  style="overflow:visible;"/>
		</clipPath>
		<defs>
			<filter id="Adobe_OpacityMaskFilter" filterUnits="userSpaceOnUse" x="-836.3" y="-836.3" width="2184.5" height="2184.5">
				<feColorMatrix  type="matrix" values="1 0 0 0 0  0 1 0 0 0  0 0 1 0 0  0 0 0 1 0"/>
			</filter>
		</defs>
		<mask maskUnits="userSpaceOnUse" x="-836.3" y="-836.3" width="2184.5" height="2184.5" id="SVGID_3_">
			<g class="st0">
				<rect x="0" y="0" class="st1" width="512" height="512"/>
			</g>
		</mask>
		<g class="st2">
			<rect x="-836.3" y="-836.3" class="st3" width="2184.5" height="2184.5"/>
			<g>
				<g>
					
						<image style="overflow:visible;" width="1620" height="1395" xlink:href="3B6C1D76.png"  transform="matrix(1 0 0 1 -389 -357)">
					</image>
				</g>
			</g>
			<g>
				<g>
					
						<image style="overflow:visible;" width="1551" height="1484" xlink:href="3B6C1D71.png"  transform="matrix(1 0 0 1 -575 -270)">
					</image>
				</g>
			</g>
			<g>
				<g>
					<image style="overflow:visible;" width="983" height="982" xlink:href="3B6C1D70.png"  transform="matrix(1 0 0 1 -359 59)">
					</image>
				</g>
			</g>
			<g>
				<g>
					<image style="overflow:visible;" width="747" height="747" xlink:href="3B6C1D7E.png"  transform="matrix(1 0 0 1 -186 261)">
					</image>
				</g>
			</g>
			<g>
				<g>
					<image style="overflow:visible;" width="734" height="706" xlink:href="3B6C1D74.png"  transform="matrix(1 0 0 1 -250 322)">
					</image>
				</g>
			</g>
			<g class="st4">
				<g>
					
						<image style="overflow:visible;" width="1502" height="658" xlink:href="3B6C1D69.png"  transform="matrix(1 0 0 1 -688 -472)">
					</image>
				</g>
			</g>
		</g>
	</g>
</g>
<g id="WA_Logo">
	<g>
		<path class="st5" d="M369.2,129.9C339.6,100.3,300.3,84,258.5,84C172.2,84,102,154.2,102,240.5c0,27.6,7.2,54.5,20.9,78.3
			l-22.2,81.1l83-21.8c22.9,12.5,48.6,19,74.8,19.1h0.1c0,0,0,0,0,0c86.3,0,156.5-70.2,156.5-156.5
			C415,198.8,398.8,159.5,369.2,129.9z M258.5,370.7L258.5,370.7c-23.4,0-46.3-6.3-66.3-18.1l-4.8-2.8l-49.2,12.9l13.1-48l-3.1-4.9
			c-13-20.7-19.9-44.7-19.9-69.2c0-71.7,58.4-130.1,130.1-130.1c34.7,0,67.4,13.6,92,38.2c24.6,24.6,38.1,57.3,38.1,92
			C388.5,312.4,330.2,370.7,258.5,370.7z M329.8,273.3c-3.9-2-23.1-11.4-26.7-12.7c-3.6-1.3-6.2-2-8.8,2
			c-2.6,3.9-10.1,12.7-12.4,15.3c-2.3,2.6-4.6,2.9-8.5,1c-3.9-2-16.5-6.1-31.5-19.4c-11.6-10.4-19.5-23.2-21.8-27.1
			c-2.3-3.9-0.2-6,1.7-8c1.8-1.8,3.9-4.6,5.9-6.9c2-2.3,2.6-3.9,3.9-6.5c1.3-2.6,0.7-4.9-0.3-6.9c-1-2-8.8-21.2-12.1-29
			c-3.2-7.6-6.4-6.6-8.8-6.7c-2.3-0.1-4.9-0.1-7.5-0.1c-2.6,0-6.8,1-10.4,4.9c-3.6,3.9-13.7,13.4-13.7,32.6c0,19.3,14,37.8,16,40.5
			c2,2.6,27.6,42.1,66.8,59.1c9.3,4,16.6,6.4,22.3,8.2c9.4,3,17.9,2.6,24.6,1.5c7.5-1.1,23.1-9.5,26.4-18.6c3.3-9.1,3.3-17,2.3-18.6
			C336.4,276.2,333.7,275.3,329.8,273.3z"/>
	</g>
</g>
</svg>
