<?xml version="1.0" encoding="utf-8"?>
<svg viewBox="60.61 19.63 355.781 462.125" xmlns="http://www.w3.org/2000/svg">
  <g style="" transform="matrix(1.308915, 0, 0, 1.308915, -69.203239, -70.783852)">
    <path d="M 244.651 146.842 L 290.736 106.299 L 273.139 84.165 L 216.165 84.165 L 198.569 106.299 L 244.651 146.842" style="fill-rule: evenodd; stroke: none; fill: rgb(239, 197, 234);" id="path16"/>
    <path d="M 106.763 286.844 C 106.763 322.255 121.123 354.317 144.323 377.525 C 167.525 400.727 199.592 415.088 235.003 415.088 C 270.423 415.088 302.482 400.727 325.684 377.525 C 348.887 354.317 363.249 322.255 363.249 286.844 C 363.249 251.425 348.887 219.365 325.684 196.163 C 302.902 173.379 271.579 159.121 236.927 158.609 L 185.859 107.294 L 269.026 103.781 L 185.132 100.245 L 200.221 84.61 L 269.788 84.61 L 287.973 103.448 L 247.76 143.861 L 300.894 103.548 L 275.059 76.784 L 273.675 75.355 L 271.731 75.355 L 198.276 75.355 L 196.326 75.355 L 194.948 76.784 L 172.247 100.298 L 169.106 103.548 L 172.304 106.748 L 231.74 166.478 L 233.102 167.853 L 235.003 167.853 C 267.86 167.853 297.616 181.174 319.142 202.703 C 340.67 224.231 353.989 253.986 353.989 286.844 C 353.989 319.696 340.67 349.451 319.142 370.975 C 297.616 392.506 267.86 405.829 235.003 405.829 C 202.15 405.829 172.391 392.506 150.868 370.982 C 129.341 349.451 116.018 319.696 116.018 286.844 C 116.018 262.334 123.406 239.573 136.074 220.681 C 149.139 201.184 167.826 185.753 189.805 176.72 C 145.982 185.408 106.763 230.025 106.763 286.844" style="fill-opacity: 1; fill-rule: nonzero; stroke: none; fill: rgb(14, 55, 27);" id="path18"/>
  </g>
  <g id="g10" transform="matrix(0.522664, 0, 0, -0.522664, 26.031939, 509.470978)" style="">
    <g id="g12" transform="scale(0.1)">
      <path d="m 4603.99,3715.59 170.55,667.15 c -148.81,-78.69 -274.16,-175.7 -374.2,-289.49 l -51.55,-204.36 c -56.6,-228.71 -111.54,-424.24 -164.81,-586.92 5.83,-10.11 12.01,-20 18.93,-29.36 1.14,-1.5 15.6,-19.56 81.64,-64.69 26.78,-18.66 49.19,-35.17 68.04,-50.16 0.57,0.01 1.17,0.05 1.75,0.05 65.11,0 139.53,-5.3 223.26,-15.94 37.4,-4.37 71.54,-7.92 102.55,-10.7 38.94,-3.48 72.65,-5.65 101.51,-6.61 11.02,-0.37 21.58,-0.62 31.13,-0.62 37.19,0 218.22,25.97 286.01,37.93 l 25.89,115.54 c -65.57,-13.56 -256.3,-41.3 -315.14,-43.32 -10.31,-0.35 -20.56,-0.59 -30.66,-0.59 -23.29,0 -47.32,1.02 -71.95,2.87 -63.91,4.81 -132.25,15.74 -205.13,32.99 l 48.09,213.15 c 22.69,102.26 40.71,179.94 54.09,233.08" style="fill-opacity: 1; fill-rule: nonzero; stroke: none; fill: rgb(126, 39, 112);" id="path14"/>
      <path d="m 4672.28,5040.3 c -40.55,-83.15 -87.32,-225.45 -140.24,-426.45 32.5,19.48 65.91,38.19 100.38,56.01 78.07,40.35 158.87,74.58 242.11,102.83 95.74,366.52 185.88,665.69 270.4,897.1 -161.6,-90.32 -351.22,-263.63 -568.86,-519.93 -306.62,-362.05 -620.55,-823.27 -941.8,-1383.63 L 3518.63,5283.3 c -4.08,42.49 -5.82,69.72 -5.26,81.74 -0.62,9.24 1.21,73.64 5.51,193.2 -78.37,-23.9 -182.62,-35.86 -312.75,-35.86 -241.73,-1.34 -452.54,-38.19 -632.48,-110.56 -179.97,-72.4 -320.72,-177.98 -422.31,-316.74 -101.6,-138.78 -152.4,-283.86 -152.4,-435.26 0,-107.57 27.05,-200.54 81.17,-278.89 39.6,-58.46 85.16,-87.64 136.65,-87.64 30.35,0 56.4,11.26 78.19,33.85 21.78,22.57 32.68,51.11 32.68,85.67 0,30.53 -19.05,70.37 -57.08,119.51 -70.85,91.64 -106.27,169.99 -106.27,235.08 0,147.4 75.01,280.87 225.1,400.4 188.57,150.06 433.59,225.1 735.08,225.1 -19.92,-303.85 -69.42,-615.3 -148.41,-934.4 -79.04,-319.11 -168.68,-567.86 -268.93,-746.31 -100.29,-178.47 -201.54,-302.2 -303.79,-371.18 -67.73,-46.44 -132.81,-69.66 -195.22,-69.66 -35.86,0 -81.02,6.98 -135.46,20.92 -59.76,13.95 -105.58,20.91 -137.46,20.91 -43.82,0 -80.02,-13.28 -108.57,-39.84 -28.57,-26.58 -42.82,-57.77 -42.82,-93.63 0,-42.48 19.58,-78.68 58.77,-108.56 39.15,-29.88 95.27,-44.83 168.32,-44.83 120.83,0 243.03,34.56 366.54,103.59 123.51,69.05 244.34,188.9 362.56,359.57 118.18,170.64 223.76,412.36 316.73,725.11 92.94,312.75 156.69,649.73 191.24,1010.97 l 157.37,-2145.66 173.87,305.12 c 221.12,398.85 420.95,728.6 599.49,989.19 222.48,323.06 387.02,545.07 493.59,666.09" style="fill-opacity: 1; fill-rule: nonzero; stroke: none; fill: rgb(126, 39, 112);" id="path-1"/>
      <path d="m 5987.12,3593.43 c -67.73,44.45 -160.05,75.98 -276.89,94.56 169.97,57.15 296.81,138.54 380.48,244.21 83.66,105.65 125.49,222.93 125.49,351.86 0,135.55 -62.09,250.5 -186.25,344.87 -124.2,94.37 -305.78,141.56 -544.83,141.56 -185.71,0 -361.54,-25.36 -527.56,-75.92 -38.3,-11.67 -76.05,-24.79 -113.31,-39.15 -56.49,-21.77 -111.84,-46.45 -165.91,-74.4 -64.78,-33.48 -125.54,-69.97 -182.53,-109.29 -45.17,-31.16 -87.85,-64.19 -128.11,-99.02 -100.59,-87 -186.06,-185.33 -256.11,-295.21 -133.47,-209.38 -200.2,-425.73 -200.2,-649.07 0,-137.11 27.87,-255.6 83.38,-355.65 10.16,-18.32 21.14,-36.08 33.16,-53.16 6.82,-9.68 13.63,-18.78 20.43,-27.61 70.71,-91.83 140.6,-137.89 209.65,-137.89 29.2,0 54.1,10.31 74.7,30.91 20.58,20.61 30.88,44.86 30.88,72.81 0,27.89 -7.32,52.17 -21.91,72.77 -5.1,7.19 -13.21,15.79 -23.96,25.64 -20.07,18.4 -49.81,41.38 -89.59,69.11 -7.67,5.25 -14.86,10.29 -21.77,15.22 -25.64,18.28 -45.92,34.35 -61.02,48.28 -9.71,8.95 -17.43,17.09 -22.79,24.25 -18.66,25.2 -34.13,52.25 -46.56,81.06 -5.26,12.22 -10.05,24.72 -14.2,37.58 -13.94,43.21 -20.91,90.05 -20.91,140.6 0,184.79 60.75,369.28 182.27,553.43 26.35,39.93 55.11,78.11 85.98,114.76 42.02,49.88 88.18,96.74 138.59,140.53 83.36,72.43 178.1,136.61 284.4,192.42 24.86,13.04 49.88,25.25 75.03,36.81 38.1,17.51 76.54,33.24 115.32,47.34 159.9,58.13 325.52,87.36 496.91,87.36 169.98,0 297.81,-34.59 383.47,-103.69 85.67,-69.13 128.49,-160.17 128.49,-273.14 0,-162.16 -59.39,-302.07 -178.1,-419.69 -118.71,-117.66 -295.48,-176.45 -530.3,-176.45 l 107.36,444.76 c 21.2,83.72 55,194.1 101.41,331.05 -175.42,-42.55 -338.9,-69.13 -490.42,-79.74 l -23.9,-97.62 c 15.93,3.99 29.19,5.98 39.84,5.98 25.2,0 46.12,-7.72 62.74,-23.1 16.6,-15.37 24.9,-33.11 24.9,-53.16 0,-25.43 -5.97,-62.88 -17.92,-112.36 l -191.56,-752.25 c 44.59,3.08 91.6,9.63 140.51,19.75 l 151.7,31.36 c 0,0 8.54,1.32 22.52,3.53 l 41.02,162.14 c 202.91,0 340.52,-12.63 412.79,-37.87 72.28,-25.28 130.63,-69.48 175.08,-132.6 44.45,-63.16 66.67,-138.61 66.67,-226.31 0,-176.8 -59.44,-337.02 -178.29,-480.57 -118.86,-143.54 -294.51,-215.32 -526.89,-215.32 -86.35,0 -189.25,14.6 -308.77,43.82 44.35,46.48 80.65,102.91 108.9,169.34 39.99,93.63 81.4,221.07 124.21,382.02 -4.69,-0.25 -8.62,-0.24 -11.59,0.1 l -65.62,-11.58 c -74.19,-13.1 -131.38,-19.46 -174.84,-19.46 -16.94,0 -35.73,0.52 -56.36,1.53 l -24.31,-95.43 C 4680.33,2728.9 4624.87,2598.89 4565.78,2540 c -59.11,-58.89 -158.37,-92.29 -297.81,-100.22 l -29.88,-109.57 c 104.9,21.26 225.11,31.88 360.57,31.88 88.95,0 173.96,-2 254.98,-5.98 169.97,-10.61 280.88,-15.94 332.67,-15.94 177.95,0 348.92,42.12 512.96,126.42 164,84.27 288.16,190.45 372.51,318.53 84.33,128.08 126.5,263.8 126.5,407.16 0,87.59 -18.28,165.22 -54.78,232.92 -36.54,67.67 -88.65,123.75 -156.38,168.23" style="fill-opacity: 1; fill-rule: nonzero; stroke: none; fill: rgb(126, 39, 112);" id="path-2"/>
    </g>
  </g>
</svg>