<svg xmlns="http://www.w3.org/2000/svg" width="2880.717" height="2880.717" viewBox="0 0 512 512">
  <defs>
    <style>
      .cls-1 {
        fill: #2d2d2d;
        fill-rule: evenodd;
      }
    </style>
  </defs>
  <path id="moon_logo_копия" data-name="moon logo копия" class="cls-1" d="M439.922,120.024c-4.022,1.466,7.437,32.017-37,48.218s-55.076-14.648-59.188-13.149,18.327,62.775,70.283,43.832S443.943,118.558,439.922,120.024Z"/>
  <path id="moonco" class="cls-1" d="M63.993,381.588a10.477,10.477,0,0,0,10.368,10.4H89.912a10.476,10.476,0,0,0,10.368-10.4V280.645A40.415,40.415,0,0,1,113,250.389q12.724-12.291,31.1-12.291,17.907,0,29.925,12.055t12.017,30.02V381.588a10.452,10.452,0,0,0,2.827,7.328,9.755,9.755,0,0,0,7.54,3.073h15.552a10.478,10.478,0,0,0,10.368-10.4V280.645q0-17.964,12.252-30.256t31.1-12.291q17.909,0,29.925,12.055t12.017,30.02V381.588A10.476,10.476,0,0,0,318,391.989h15.08a9.754,9.754,0,0,0,7.54-3.073,10.453,10.453,0,0,0,2.828-7.328V269.772q0-28.365-20.029-47.511t-50.66-19.146q-41.941,0-59.85,31.674-19.321-31.674-57.964-31.674-36.287,0-54.666,27.419V218.243a10.476,10.476,0,0,0-10.368-10.4H74.361a10.477,10.477,0,0,0-10.368,10.4V381.588Zm385.472-153.5"/>
</svg>
